<svg width="220" height="91" viewBox="0 0 220 91" fill="none" xmlns="http://www.w3.org/2000/svg">
<path d="M46.4434 58.238C50.7476 72.6778 55.746 85.7985 73.3792 88.8531L73.2403 89.825C56.6485 87.8118 47.4847 72.3307 42.6252 57.8909C39.2235 47.9635 37.002 34.9816 32.4201 24.0823L20.5489 63.9306L7.49759 20.5418C6.66452 17.7649 5.27608 16.307 3.33226 15.4045H13.0514C11.6629 15.821 10.8993 17.4178 10.8993 19.1533C10.8993 19.6393 10.9687 20.1252 11.1075 20.6112L21.868 56.5024L31.9342 22.9021C24.992 7.55982 15.134 2.35315 1.8744 0.82587V0.20107C24.1589 1.72836 34.7111 17.7649 40.7508 37.9667L46.0269 56.5718L56.7873 20.5418C56.9261 20.0558 56.9956 19.5698 56.9956 19.1533C56.9956 16.8624 54.8435 15.6822 53.5245 15.4045H62.9659C61.5774 15.6822 58.7311 16.793 57.6898 20.3335L46.4434 58.238ZM88.5197 15.1962C102.057 15.1962 113.026 26.1649 113.026 39.7023C113.026 53.2396 102.057 64.2083 88.5197 64.2083C74.9824 64.2083 64.0137 53.2396 64.0137 39.7023C64.0137 26.1649 74.9824 15.1962 88.5197 15.1962ZM92.5462 63.3752H92.6156C103.723 61.5008 110.804 48.9354 108.652 36.3006C106.5 23.6657 95.7396 14.2938 84.6321 16.1682C73.5245 18.0426 66.3046 30.3997 68.4567 43.0345C70.6088 55.6693 81.4387 65.2496 92.5462 63.3752ZM144.518 15.1962C158.056 15.1962 169.024 26.1649 169.024 39.7023C169.024 53.2396 158.056 64.2083 144.518 64.2083C130.981 64.2083 120.012 53.2396 120.012 39.7023C120.012 26.1649 130.981 15.1962 144.518 15.1962ZM148.545 63.3752H148.614C159.722 61.5008 166.803 48.9354 164.651 36.3006C162.499 23.6657 151.738 14.2938 140.631 16.1682C129.523 18.0426 122.303 30.3997 124.455 43.0345C126.608 55.6693 137.437 65.2496 148.545 63.3752ZM174.247 15.4045H190.769C204.168 15.4045 215.9 26.3038 215.9 39.7023C215.9 53.1007 205.001 64 191.602 64H174.247C175.982 63.4446 177.371 62.195 177.371 58.9322V20.5418C177.371 17.2789 175.982 15.9599 174.247 15.4045ZM180.772 63.0975H187.506C202.988 63.0975 211.804 52.6842 211.804 39.7023C211.804 26.7203 202.988 16.2376 187.506 16.2376H180.772V63.0975Z" fill="#588077"/>
<path d="M77.1975 68.997C77.4289 68.835 77.5562 68.8466 77.5793 69.0317C77.6256 69.2168 77.5562 69.3904 77.371 69.5524C76.052 70.6168 74.571 71.4383 72.928 72.0168C71.3082 72.5954 69.6189 72.8846 67.8602 72.8846C67.6057 72.8846 67.2933 72.8499 66.923 72.7805C66.5759 72.7342 66.2403 72.6301 65.9164 72.4681C65.5924 72.3061 65.3147 72.0863 65.0833 71.8086C64.875 71.5077 64.7709 71.1259 64.7709 70.6631C64.7709 70.64 64.7825 70.5243 64.8056 70.316C64.8056 70.1077 64.8288 69.8879 64.875 69.6565C64.9213 69.4251 64.9908 69.2168 65.0833 69.0317C65.1759 68.8234 65.3147 68.7193 65.4998 68.7193C65.685 68.6961 65.8007 68.7771 65.847 68.9623C65.9164 69.1242 65.9511 69.2978 65.9511 69.4829C65.9511 69.7143 65.9279 69.992 65.8817 70.316C65.8585 70.6168 65.847 70.8482 65.847 71.0102C65.847 71.2416 65.9164 71.4499 66.0552 71.635C66.2172 71.797 66.4023 71.9358 66.6106 72.0515C66.842 72.1673 67.0966 72.2598 67.3742 72.3292C67.6519 72.3755 67.918 72.3987 68.1726 72.3987C68.8437 72.3987 69.561 72.3177 70.3247 72.1557C71.1115 71.9706 71.8983 71.7276 72.685 71.4268C73.495 71.1259 74.2817 70.7672 75.0454 70.3507C75.8322 69.9342 76.5495 69.4829 77.1975 68.997ZM66.7147 67.6432C66.4833 67.6432 66.2635 67.5507 66.0552 67.3656C65.8701 67.1573 65.7775 66.9259 65.7775 66.6713C65.7775 66.6945 65.7775 66.6713 65.7775 66.6019C65.8007 66.5093 65.8354 66.4168 65.8817 66.3242C65.9511 66.2317 66.0437 66.1507 66.1594 66.0812C66.2982 65.9887 66.4833 65.9424 66.7147 65.9424C66.8999 65.9424 67.0734 66.0581 67.2354 66.2895C67.3974 66.4978 67.4784 66.7639 67.4784 67.0879C67.4784 67.273 67.3974 67.4118 67.2354 67.5044C67.0734 67.5738 66.8999 67.6201 66.7147 67.6432ZM88.4311 68.997C88.6162 68.8813 88.7667 68.8697 88.8824 68.9623C89.0212 69.0548 88.9518 69.1937 88.6741 69.3788C88.165 69.7028 87.5865 70.0383 86.9385 70.3854C86.2906 70.7325 85.6195 71.0565 84.9253 71.3573C84.2542 71.6582 83.5716 71.9011 82.8773 72.0863C82.1831 72.2714 81.5236 72.3639 80.8988 72.3639C80.5517 72.3639 80.274 72.3177 80.0657 72.2251C79.8806 72.1094 79.7302 71.9821 79.6145 71.8433C79.5219 71.6813 79.4525 71.5193 79.4062 71.3573C79.3831 71.1722 79.3715 71.0102 79.3715 70.8714C79.3715 70.8251 79.3831 70.7441 79.4062 70.6284C79.4294 70.4896 79.4409 70.3623 79.4409 70.2466C79.4409 70.1077 79.4294 69.992 79.4062 69.8995C79.3831 69.7838 79.3368 69.7259 79.2674 69.7259C79.1748 69.7259 79.0476 69.7953 78.8856 69.9342C78.7467 70.073 78.5847 70.235 78.3996 70.4201C78.2376 70.5821 78.0756 70.7325 77.9137 70.8714C77.7517 71.0102 77.6244 71.0796 77.5318 71.0796C77.393 71.0796 77.2889 71.0449 77.2194 70.9755C77.15 70.8829 77.1037 70.7788 77.0806 70.6631C77.0575 70.5243 77.0459 70.397 77.0459 70.2813C77.0459 70.1424 77.0459 70.0267 77.0459 69.9342C77.0459 69.7259 77.0575 69.5061 77.0806 69.2747C77.1037 69.0201 77.2079 68.8697 77.393 68.8234C77.6475 68.8234 77.7864 68.9738 77.8095 69.2747C77.8558 69.5524 77.8789 69.9226 77.8789 70.3854C78.0409 70.2234 78.2492 70.0267 78.5037 69.7953C78.7583 69.5408 79.0591 69.4135 79.4062 69.4135C79.6839 69.4135 79.8922 69.4829 80.031 69.6218C80.193 69.7606 80.3203 69.9342 80.4129 70.1424C80.5054 70.3507 80.5633 70.5705 80.5864 70.802C80.6096 71.0334 80.6211 71.2416 80.6211 71.4268C80.6211 71.5656 80.7021 71.6582 80.8641 71.7044C81.0492 71.7276 81.2228 71.7391 81.3848 71.7391C81.8476 71.7391 82.3798 71.6582 82.9815 71.4962C83.6063 71.3342 84.2426 71.1259 84.8906 70.8714C85.5385 70.6168 86.1633 70.3276 86.765 70.0036C87.3898 69.6565 87.9452 69.3209 88.4311 68.997ZM110.695 69.2052C109.816 69.8532 108.856 70.5127 107.814 71.1838C106.773 71.8317 105.72 72.4102 104.656 72.9193C103.591 73.4516 102.55 73.8797 101.532 74.2036C100.537 74.5507 99.6456 74.7243 98.8588 74.7243C98.072 74.7243 97.4472 74.516 96.9844 74.0995C96.5447 73.683 96.1976 73.1739 95.9431 72.5722C95.7117 71.9474 95.5613 71.2879 95.4918 70.5937C95.4224 69.8995 95.3877 69.2631 95.3877 68.6846C95.3877 67.8978 95.4687 66.9143 95.6307 65.7341C95.7927 64.5308 96.0356 63.2697 96.3596 61.9506C96.7067 60.6085 97.1348 59.2779 97.6439 57.9589C98.153 56.6398 98.7547 55.4481 99.4489 54.3836C100.166 53.3191 100.965 52.4629 101.844 51.815C102.746 51.1439 103.753 50.8084 104.864 50.8084C105.419 50.8084 105.859 50.9125 106.183 51.1208C106.507 51.3059 106.761 51.5489 106.946 51.8497C107.132 52.1274 107.247 52.4514 107.294 52.8216C107.363 53.1919 107.398 53.5506 107.398 53.8977C107.398 55.5869 107.085 57.2184 106.461 58.7919C105.836 60.3655 105.003 61.8234 103.961 63.1655C102.943 64.4845 101.763 65.6531 100.421 66.6713C99.0786 67.6664 97.6786 68.4416 96.2208 68.997C96.2208 69.6912 96.2439 70.3507 96.2902 70.9755C96.3365 71.6003 96.4522 72.1557 96.6373 72.6416C96.8456 73.1045 97.1348 73.4747 97.5051 73.7524C97.8753 74.0301 98.396 74.1689 99.0671 74.1689C99.9464 74.1689 100.884 73.9954 101.879 73.6483C102.897 73.3011 103.903 72.873 104.899 72.3639C105.894 71.8317 106.854 71.2648 107.78 70.6631C108.728 70.0614 109.585 69.5061 110.348 68.997C110.556 68.8581 110.695 68.835 110.765 68.9276C110.834 69.0201 110.811 69.1127 110.695 69.2052ZM105.107 51.1208C104.181 51.1208 103.325 51.4447 102.538 52.0927C101.775 52.7175 101.08 53.539 100.456 54.5572C99.8539 55.5754 99.31 56.7324 98.8241 58.0283C98.3613 59.301 97.9563 60.5738 97.6092 61.8465C97.2621 63.1192 96.9728 64.3341 96.7414 65.4912C96.5332 66.6482 96.3712 67.6201 96.2555 68.4069C96.834 68.1523 97.3431 67.9094 97.7828 67.678C98.2456 67.4465 98.7315 67.1573 99.2406 66.8102C100.143 66.1854 101.046 65.3986 101.948 64.4498C102.874 63.4779 103.707 62.4134 104.447 61.2564C105.211 60.0762 105.824 58.8498 106.287 57.577C106.75 56.2812 106.981 54.9968 106.981 53.7241C106.981 52.9142 106.831 52.2778 106.53 51.815C106.229 51.3522 105.755 51.1208 105.107 51.1208ZM122.451 68.997C122.682 68.835 122.809 68.8466 122.832 69.0317C122.879 69.2168 122.809 69.3904 122.624 69.5524C121.305 70.6168 119.824 71.4383 118.181 72.0168C116.561 72.5954 114.872 72.8846 113.113 72.8846C112.859 72.8846 112.546 72.8499 112.176 72.7805C111.829 72.7342 111.494 72.6301 111.17 72.4681C110.846 72.3061 110.568 72.0863 110.337 71.8086C110.128 71.5077 110.024 71.1259 110.024 70.6631C110.024 70.64 110.036 70.5243 110.059 70.316C110.059 70.1077 110.082 69.8879 110.128 69.6565C110.175 69.4251 110.244 69.2168 110.337 69.0317C110.429 68.8234 110.568 68.7193 110.753 68.7193C110.938 68.6961 111.054 68.7771 111.1 68.9623C111.17 69.1242 111.204 69.2978 111.204 69.4829C111.204 69.7143 111.181 69.992 111.135 70.316C111.112 70.6168 111.1 70.8482 111.1 71.0102C111.1 71.2416 111.17 71.4499 111.308 71.635C111.47 71.797 111.656 71.9358 111.864 72.0515C112.095 72.1673 112.35 72.2598 112.627 72.3292C112.905 72.3755 113.171 72.3987 113.426 72.3987C114.097 72.3987 114.814 72.3177 115.578 72.1557C116.365 71.9706 117.151 71.7276 117.938 71.4268C118.748 71.1259 119.535 70.7672 120.299 70.3507C121.085 69.9342 121.803 69.4829 122.451 68.997ZM111.968 67.6432C111.737 67.6432 111.517 67.5507 111.308 67.3656C111.123 67.1573 111.031 66.9259 111.031 66.6713C111.031 66.6945 111.031 66.6713 111.031 66.6019C111.054 66.5093 111.089 66.4168 111.135 66.3242C111.204 66.2317 111.297 66.1507 111.413 66.0812C111.551 65.9887 111.737 65.9424 111.968 65.9424C112.153 65.9424 112.327 66.0581 112.489 66.2895C112.651 66.4978 112.732 66.7639 112.732 67.0879C112.732 67.273 112.651 67.4118 112.489 67.5044C112.327 67.5738 112.153 67.6201 111.968 67.6432ZM140.557 68.997C140.835 68.8119 141.02 68.7771 141.112 68.8928C141.228 69.0085 141.159 69.159 140.904 69.3441C140.117 69.8995 139.25 70.3623 138.301 70.7325C137.352 71.1028 136.357 71.4036 135.316 71.635C134.298 71.8433 133.256 71.9937 132.192 72.0863C131.15 72.1788 130.132 72.2251 129.137 72.2251C128.721 72.2251 128.304 72.2251 127.888 72.2251C127.494 72.202 127.089 72.1673 126.673 72.121C127.089 72.8846 127.436 73.7177 127.714 74.6202C128.015 75.5227 128.258 76.4483 128.443 77.3971C128.651 78.369 128.79 79.3409 128.859 80.3128C128.952 81.3078 128.998 82.2682 128.998 83.1938C128.998 83.6566 128.964 84.3046 128.894 85.1376C128.848 85.9707 128.697 86.7806 128.443 87.5674C128.212 88.3773 127.83 89.0715 127.297 89.6501C126.788 90.2517 126.071 90.5525 125.145 90.5525C124.22 90.5525 123.479 90.2517 122.924 89.6501C122.368 89.0484 121.952 88.2848 121.674 87.3591C121.373 86.4566 121.177 85.4732 121.084 84.4087C120.992 83.3442 120.945 82.3492 120.945 81.4235C120.945 79.8268 121.038 78.0913 121.223 76.2169C121.385 74.3656 121.674 72.4912 122.091 70.5937C122.484 68.673 123.016 66.7986 123.688 64.9705C124.382 63.1192 125.238 61.4068 126.256 59.8333C126.511 59.4399 126.812 59.0002 127.159 58.5142C127.506 58.0051 127.888 57.5423 128.304 57.1258C128.744 56.6861 129.207 56.3159 129.693 56.015C130.202 55.7142 130.722 55.5638 131.255 55.5638C131.555 55.5638 131.798 55.6448 131.983 55.8068C132.192 55.9456 132.342 56.1307 132.435 56.3621C132.55 56.5704 132.62 56.8018 132.643 57.0564C132.689 57.3109 132.712 57.5539 132.712 57.7853C132.666 59.0118 132.354 60.1919 131.775 61.3258C131.22 62.4597 130.491 63.5242 129.588 64.5192C128.709 65.5143 127.737 66.4168 126.673 67.2267C125.608 68.0366 124.578 68.7193 123.583 69.2747C123.074 71.4036 122.635 73.602 122.264 75.8698C121.894 78.1607 121.709 80.4632 121.709 82.7773C121.709 83.6798 121.767 84.5707 121.883 85.45C121.975 86.3294 122.149 87.1162 122.403 87.8104C122.658 88.5046 123.005 89.06 123.445 89.4765C123.907 89.9162 124.474 90.136 125.145 90.136C125.84 90.136 126.395 89.9162 126.812 89.4765C127.251 89.06 127.587 88.5162 127.818 87.8451C128.05 87.1971 128.2 86.4798 128.269 85.693C128.362 84.9294 128.408 84.212 128.408 83.5409C128.408 82.3376 128.316 81.1111 128.131 79.8615C127.969 78.6119 127.726 77.3971 127.402 76.2169C127.286 75.8235 127.159 75.3954 127.02 74.9326C126.904 74.4698 126.754 74.0301 126.569 73.6135C126.407 73.197 126.21 72.8383 125.978 72.5375C125.77 72.2367 125.516 72.0515 125.215 71.9821L124.833 71.9127C124.717 71.8664 124.532 71.797 124.278 71.7044C124.023 71.5887 123.896 71.3573 123.896 71.0102C123.896 70.7788 123.977 70.5937 124.139 70.4548C124.324 70.316 124.509 70.2466 124.694 70.2466C125.064 70.2466 125.388 70.4086 125.666 70.7325C125.944 71.0334 126.14 71.2879 126.256 71.4962C127.182 71.635 128.142 71.7044 129.137 71.7044C129.947 71.7044 130.838 71.6813 131.81 71.635C132.782 71.5656 133.765 71.4383 134.76 71.2532C135.779 71.0449 136.785 70.7672 137.78 70.4201C138.775 70.073 139.701 69.5986 140.557 68.997ZM125.492 71.4268C125.469 71.3805 125.411 71.311 125.319 71.2185C125.25 71.1259 125.169 71.0449 125.076 70.9755C124.983 70.9061 124.891 70.8598 124.798 70.8367C124.706 70.8135 124.636 70.8367 124.59 70.9061C124.544 70.9524 124.59 71.0681 124.729 71.2532C124.891 71.4152 125.145 71.473 125.492 71.4268ZM124.451 65.7688C124.335 66.1854 124.208 66.6482 124.069 67.1573C123.93 67.6432 123.803 68.0945 123.688 68.511C124.127 68.2333 124.636 67.8747 125.215 67.435C125.816 66.9953 126.43 66.4978 127.054 65.9424C127.702 65.387 128.327 64.7854 128.929 64.1374C129.531 63.4663 130.074 62.7721 130.56 62.0548C131.046 61.3143 131.44 60.5506 131.74 59.7638C132.041 58.977 132.192 58.1787 132.192 57.3688C132.192 56.8365 132.076 56.4663 131.845 56.258C131.636 56.0266 131.417 55.9109 131.185 55.9109C131.046 55.9109 130.942 55.9225 130.873 55.9456C130.109 56.2002 129.392 56.6861 128.721 57.4035C128.05 58.1208 127.436 58.9539 126.881 59.9027C126.349 60.8514 125.874 61.8465 125.458 62.8878C125.041 63.9292 124.706 64.8895 124.451 65.7688ZM147.446 69.1705C147.284 69.2862 147.018 69.4482 146.648 69.6565C146.277 69.8416 145.826 70.0267 145.294 70.2119C144.785 70.397 144.218 70.559 143.593 70.6978C142.968 70.8367 142.32 70.9061 141.649 70.9061C141.325 70.9061 141.001 70.8135 140.677 70.6284C140.376 70.4433 140.226 70.1656 140.226 69.7953C140.226 69.4714 140.342 69.2052 140.573 68.997C140.804 68.7887 141.059 68.6499 141.337 68.5804C141.614 68.511 141.869 68.5226 142.1 68.6152C142.332 68.6846 142.447 68.8466 142.447 69.1011C142.447 69.3557 142.343 69.5176 142.135 69.5871C141.927 69.6565 141.765 69.6912 141.649 69.6912C141.395 69.6912 141.209 69.6796 141.094 69.6565C141.001 69.9805 141.082 70.2003 141.337 70.316C141.614 70.4086 141.927 70.4548 142.274 70.4548C143.014 70.4548 143.847 70.3276 144.773 70.073C145.722 69.8185 146.52 69.4598 147.168 68.997C147.376 68.8581 147.492 68.8466 147.515 68.9623C147.538 69.0548 147.515 69.1242 147.446 69.1705ZM141.128 69.1705C141.082 69.24 141.105 69.2862 141.198 69.3094C141.314 69.3325 141.429 69.3441 141.545 69.3441C141.684 69.3209 141.811 69.2978 141.927 69.2747C142.043 69.2284 142.1 69.1821 142.1 69.1358C142.1 69.0664 142.054 69.0201 141.962 68.997C141.869 68.9507 141.765 68.9391 141.649 68.9623C141.533 68.9623 141.418 68.9854 141.302 69.0317C141.209 69.0548 141.152 69.1011 141.128 69.1705Z" fill="#373826"/>
</svg>
