<svg width="221" height="91" viewBox="0 0 221 91" fill="none" xmlns="http://www.w3.org/2000/svg">
<rect width="221" height="58" transform="translate(0 12)" fill="#F7F4F2"/>
<path d="M47.4434 58.238C51.7476 72.6778 56.746 85.7985 74.3792 88.8531L74.2403 89.825C57.6485 87.8118 48.4847 72.3307 43.6252 57.8909C40.2235 47.9635 38.002 34.9816 33.4201 24.0823L21.5489 63.9306L8.49759 20.5418C7.66452 17.7649 6.27608 16.307 4.33226 15.4045H14.0514C12.6629 15.821 11.8993 17.4178 11.8993 19.1533C11.8993 19.6393 11.9687 20.1252 12.1075 20.6112L22.868 56.5024L32.9342 22.9021C25.992 7.55982 16.134 2.35315 2.8744 0.82587V0.20107C25.1589 1.72836 35.7111 17.7649 41.7508 37.9667L47.0269 56.5718L57.7873 20.5418C57.9261 20.0558 57.9956 19.5698 57.9956 19.1533C57.9956 16.8624 55.8435 15.6822 54.5245 15.4045H63.9659C62.5774 15.6822 59.7311 16.793 58.6898 20.3335L47.4434 58.238ZM89.5197 15.1962C103.057 15.1962 114.026 26.1649 114.026 39.7023C114.026 53.2396 103.057 64.2083 89.5197 64.2083C75.9824 64.2083 65.0137 53.2396 65.0137 39.7023C65.0137 26.1649 75.9824 15.1962 89.5197 15.1962ZM93.5462 63.3752H93.6156C104.723 61.5008 111.804 48.9354 109.652 36.3006C107.5 23.6657 96.7396 14.2938 85.6321 16.1682C74.5245 18.0426 67.3046 30.3997 69.4567 43.0345C71.6088 55.6693 82.4387 65.2496 93.5462 63.3752ZM145.518 15.1962C159.056 15.1962 170.024 26.1649 170.024 39.7023C170.024 53.2396 159.056 64.2083 145.518 64.2083C131.981 64.2083 121.012 53.2396 121.012 39.7023C121.012 26.1649 131.981 15.1962 145.518 15.1962ZM149.545 63.3752H149.614C160.722 61.5008 167.803 48.9354 165.651 36.3006C163.499 23.6657 152.738 14.2938 141.631 16.1682C130.523 18.0426 123.303 30.3997 125.455 43.0345C127.608 55.6693 138.437 65.2496 149.545 63.3752ZM175.247 15.4045H191.769C205.168 15.4045 216.9 26.3038 216.9 39.7023C216.9 53.1007 206.001 64 192.602 64H175.247C176.982 63.4446 178.371 62.195 178.371 58.9322V20.5418C178.371 17.2789 176.982 15.9599 175.247 15.4045ZM181.772 63.0975H188.506C203.988 63.0975 212.804 52.6842 212.804 39.7023C212.804 26.7203 203.988 16.2376 188.506 16.2376H181.772V63.0975Z" fill="#588077"/>
<path d="M78.1975 68.997C78.4289 68.835 78.5562 68.8466 78.5793 69.0317C78.6256 69.2168 78.5562 69.3904 78.371 69.5524C77.052 70.6168 75.571 71.4383 73.928 72.0168C72.3082 72.5954 70.6189 72.8846 68.8602 72.8846C68.6057 72.8846 68.2933 72.8499 67.923 72.7805C67.5759 72.7342 67.2403 72.6301 66.9164 72.4681C66.5924 72.3061 66.3147 72.0863 66.0833 71.8086C65.875 71.5077 65.7709 71.1259 65.7709 70.6631C65.7709 70.64 65.7825 70.5243 65.8056 70.316C65.8056 70.1077 65.8288 69.8879 65.875 69.6565C65.9213 69.4251 65.9908 69.2168 66.0833 69.0317C66.1759 68.8234 66.3147 68.7193 66.4998 68.7193C66.685 68.6961 66.8007 68.7771 66.847 68.9623C66.9164 69.1242 66.9511 69.2978 66.9511 69.4829C66.9511 69.7143 66.9279 69.992 66.8817 70.316C66.8585 70.6168 66.847 70.8482 66.847 71.0102C66.847 71.2416 66.9164 71.4499 67.0552 71.635C67.2172 71.797 67.4023 71.9358 67.6106 72.0515C67.842 72.1673 68.0966 72.2598 68.3742 72.3292C68.6519 72.3755 68.918 72.3987 69.1726 72.3987C69.8437 72.3987 70.561 72.3177 71.3247 72.1557C72.1115 71.9706 72.8983 71.7276 73.685 71.4268C74.495 71.1259 75.2817 70.7672 76.0454 70.3507C76.8322 69.9342 77.5495 69.4829 78.1975 68.997ZM67.7147 67.6432C67.4833 67.6432 67.2635 67.5507 67.0552 67.3656C66.8701 67.1573 66.7775 66.9259 66.7775 66.6713C66.7775 66.6945 66.7775 66.6713 66.7775 66.6019C66.8007 66.5093 66.8354 66.4168 66.8817 66.3242C66.9511 66.2317 67.0437 66.1507 67.1594 66.0812C67.2982 65.9887 67.4833 65.9424 67.7147 65.9424C67.8999 65.9424 68.0734 66.0581 68.2354 66.2895C68.3974 66.4978 68.4784 66.7639 68.4784 67.0879C68.4784 67.273 68.3974 67.4118 68.2354 67.5044C68.0734 67.5738 67.8999 67.6201 67.7147 67.6432ZM89.4311 68.997C89.6162 68.8813 89.7667 68.8697 89.8824 68.9623C90.0212 69.0548 89.9518 69.1937 89.6741 69.3788C89.165 69.7028 88.5865 70.0383 87.9385 70.3854C87.2906 70.7325 86.6195 71.0565 85.9253 71.3573C85.2542 71.6582 84.5716 71.9011 83.8773 72.0863C83.1831 72.2714 82.5236 72.3639 81.8988 72.3639C81.5517 72.3639 81.274 72.3177 81.0657 72.2251C80.8806 72.1094 80.7302 71.9821 80.6145 71.8433C80.5219 71.6813 80.4525 71.5193 80.4062 71.3573C80.3831 71.1722 80.3715 71.0102 80.3715 70.8714C80.3715 70.8251 80.3831 70.7441 80.4062 70.6284C80.4294 70.4896 80.4409 70.3623 80.4409 70.2466C80.4409 70.1077 80.4294 69.992 80.4062 69.8995C80.3831 69.7838 80.3368 69.7259 80.2674 69.7259C80.1748 69.7259 80.0476 69.7953 79.8856 69.9342C79.7467 70.073 79.5847 70.235 79.3996 70.4201C79.2376 70.5821 79.0756 70.7325 78.9137 70.8714C78.7517 71.0102 78.6244 71.0796 78.5318 71.0796C78.393 71.0796 78.2889 71.0449 78.2194 70.9755C78.15 70.8829 78.1037 70.7788 78.0806 70.6631C78.0575 70.5243 78.0459 70.397 78.0459 70.2813C78.0459 70.1424 78.0459 70.0267 78.0459 69.9342C78.0459 69.7259 78.0575 69.5061 78.0806 69.2747C78.1037 69.0201 78.2079 68.8697 78.393 68.8234C78.6475 68.8234 78.7864 68.9738 78.8095 69.2747C78.8558 69.5524 78.8789 69.9226 78.8789 70.3854C79.0409 70.2234 79.2492 70.0267 79.5037 69.7953C79.7583 69.5408 80.0591 69.4135 80.4062 69.4135C80.6839 69.4135 80.8922 69.4829 81.031 69.6218C81.193 69.7606 81.3203 69.9342 81.4129 70.1424C81.5054 70.3507 81.5633 70.5705 81.5864 70.802C81.6096 71.0334 81.6211 71.2416 81.6211 71.4268C81.6211 71.5656 81.7021 71.6582 81.8641 71.7044C82.0492 71.7276 82.2228 71.7391 82.3848 71.7391C82.8476 71.7391 83.3798 71.6582 83.9815 71.4962C84.6063 71.3342 85.2426 71.1259 85.8906 70.8714C86.5385 70.6168 87.1633 70.3276 87.765 70.0036C88.3898 69.6565 88.9452 69.3209 89.4311 68.997ZM111.695 69.2052C110.816 69.8532 109.856 70.5127 108.814 71.1838C107.773 71.8317 106.72 72.4102 105.656 72.9193C104.591 73.4516 103.55 73.8797 102.532 74.2036C101.537 74.5507 100.646 74.7243 99.8588 74.7243C99.072 74.7243 98.4472 74.516 97.9844 74.0995C97.5447 73.683 97.1976 73.1739 96.9431 72.5722C96.7117 71.9474 96.5613 71.2879 96.4918 70.5937C96.4224 69.8995 96.3877 69.2631 96.3877 68.6846C96.3877 67.8978 96.4687 66.9143 96.6307 65.7341C96.7927 64.5308 97.0356 63.2697 97.3596 61.9506C97.7067 60.6085 98.1348 59.2779 98.6439 57.9589C99.153 56.6398 99.7547 55.4481 100.449 54.3836C101.166 53.3191 101.965 52.4629 102.844 51.815C103.746 51.1439 104.753 50.8084 105.864 50.8084C106.419 50.8084 106.859 50.9125 107.183 51.1208C107.507 51.3059 107.761 51.5489 107.946 51.8497C108.132 52.1274 108.247 52.4514 108.294 52.8216C108.363 53.1919 108.398 53.5506 108.398 53.8977C108.398 55.5869 108.085 57.2184 107.461 58.7919C106.836 60.3655 106.003 61.8234 104.961 63.1655C103.943 64.4845 102.763 65.6531 101.421 66.6713C100.079 67.6664 98.6786 68.4416 97.2208 68.997C97.2208 69.6912 97.2439 70.3507 97.2902 70.9755C97.3365 71.6003 97.4522 72.1557 97.6373 72.6416C97.8456 73.1045 98.1348 73.4747 98.5051 73.7524C98.8753 74.0301 99.396 74.1689 100.067 74.1689C100.946 74.1689 101.884 73.9954 102.879 73.6483C103.897 73.3011 104.903 72.873 105.899 72.3639C106.894 71.8317 107.854 71.2648 108.78 70.6631C109.728 70.0614 110.585 69.5061 111.348 68.997C111.556 68.8581 111.695 68.835 111.765 68.9276C111.834 69.0201 111.811 69.1127 111.695 69.2052ZM106.107 51.1208C105.181 51.1208 104.325 51.4447 103.538 52.0927C102.775 52.7175 102.08 53.539 101.456 54.5572C100.854 55.5754 100.31 56.7324 99.8241 58.0283C99.3613 59.301 98.9563 60.5738 98.6092 61.8465C98.2621 63.1192 97.9728 64.3341 97.7414 65.4912C97.5332 66.6482 97.3712 67.6201 97.2555 68.4069C97.834 68.1523 98.3431 67.9094 98.7828 67.678C99.2456 67.4465 99.7315 67.1573 100.241 66.8102C101.143 66.1854 102.046 65.3986 102.948 64.4498C103.874 63.4779 104.707 62.4134 105.447 61.2564C106.211 60.0762 106.824 58.8498 107.287 57.577C107.75 56.2812 107.981 54.9968 107.981 53.7241C107.981 52.9142 107.831 52.2778 107.53 51.815C107.229 51.3522 106.755 51.1208 106.107 51.1208ZM123.451 68.997C123.682 68.835 123.809 68.8466 123.832 69.0317C123.879 69.2168 123.809 69.3904 123.624 69.5524C122.305 70.6168 120.824 71.4383 119.181 72.0168C117.561 72.5954 115.872 72.8846 114.113 72.8846C113.859 72.8846 113.546 72.8499 113.176 72.7805C112.829 72.7342 112.494 72.6301 112.17 72.4681C111.846 72.3061 111.568 72.0863 111.337 71.8086C111.128 71.5077 111.024 71.1259 111.024 70.6631C111.024 70.64 111.036 70.5243 111.059 70.316C111.059 70.1077 111.082 69.8879 111.128 69.6565C111.175 69.4251 111.244 69.2168 111.337 69.0317C111.429 68.8234 111.568 68.7193 111.753 68.7193C111.938 68.6961 112.054 68.7771 112.1 68.9623C112.17 69.1242 112.204 69.2978 112.204 69.4829C112.204 69.7143 112.181 69.992 112.135 70.316C112.112 70.6168 112.1 70.8482 112.1 71.0102C112.1 71.2416 112.17 71.4499 112.308 71.635C112.47 71.797 112.656 71.9358 112.864 72.0515C113.095 72.1673 113.35 72.2598 113.627 72.3292C113.905 72.3755 114.171 72.3987 114.426 72.3987C115.097 72.3987 115.814 72.3177 116.578 72.1557C117.365 71.9706 118.151 71.7276 118.938 71.4268C119.748 71.1259 120.535 70.7672 121.299 70.3507C122.085 69.9342 122.803 69.4829 123.451 68.997ZM112.968 67.6432C112.737 67.6432 112.517 67.5507 112.308 67.3656C112.123 67.1573 112.031 66.9259 112.031 66.6713C112.031 66.6945 112.031 66.6713 112.031 66.6019C112.054 66.5093 112.089 66.4168 112.135 66.3242C112.204 66.2317 112.297 66.1507 112.413 66.0812C112.551 65.9887 112.737 65.9424 112.968 65.9424C113.153 65.9424 113.327 66.0581 113.489 66.2895C113.651 66.4978 113.732 66.7639 113.732 67.0879C113.732 67.273 113.651 67.4118 113.489 67.5044C113.327 67.5738 113.153 67.6201 112.968 67.6432ZM141.557 68.997C141.835 68.8119 142.02 68.7771 142.112 68.8928C142.228 69.0085 142.159 69.159 141.904 69.3441C141.117 69.8995 140.25 70.3623 139.301 70.7325C138.352 71.1028 137.357 71.4036 136.316 71.635C135.298 71.8433 134.256 71.9937 133.192 72.0863C132.15 72.1788 131.132 72.2251 130.137 72.2251C129.721 72.2251 129.304 72.2251 128.888 72.2251C128.494 72.202 128.089 72.1673 127.673 72.121C128.089 72.8846 128.436 73.7177 128.714 74.6202C129.015 75.5227 129.258 76.4483 129.443 77.3971C129.651 78.369 129.79 79.3409 129.859 80.3128C129.952 81.3078 129.998 82.2682 129.998 83.1938C129.998 83.6566 129.964 84.3046 129.894 85.1376C129.848 85.9707 129.697 86.7806 129.443 87.5674C129.212 88.3773 128.83 89.0715 128.297 89.6501C127.788 90.2517 127.071 90.5525 126.145 90.5525C125.22 90.5525 124.479 90.2517 123.924 89.6501C123.368 89.0484 122.952 88.2848 122.674 87.3591C122.373 86.4566 122.177 85.4732 122.084 84.4087C121.992 83.3442 121.945 82.3492 121.945 81.4235C121.945 79.8268 122.038 78.0913 122.223 76.2169C122.385 74.3656 122.674 72.4912 123.091 70.5937C123.484 68.673 124.016 66.7986 124.688 64.9705C125.382 63.1192 126.238 61.4068 127.256 59.8333C127.511 59.4399 127.812 59.0002 128.159 58.5142C128.506 58.0051 128.888 57.5423 129.304 57.1258C129.744 56.6861 130.207 56.3159 130.693 56.015C131.202 55.7142 131.722 55.5638 132.255 55.5638C132.555 55.5638 132.798 55.6448 132.983 55.8068C133.192 55.9456 133.342 56.1307 133.435 56.3621C133.55 56.5704 133.62 56.8018 133.643 57.0564C133.689 57.3109 133.712 57.5539 133.712 57.7853C133.666 59.0118 133.354 60.1919 132.775 61.3258C132.22 62.4597 131.491 63.5242 130.588 64.5192C129.709 65.5143 128.737 66.4168 127.673 67.2267C126.608 68.0366 125.578 68.7193 124.583 69.2747C124.074 71.4036 123.635 73.602 123.264 75.8698C122.894 78.1607 122.709 80.4632 122.709 82.7773C122.709 83.6798 122.767 84.5707 122.883 85.45C122.975 86.3294 123.149 87.1162 123.403 87.8104C123.658 88.5046 124.005 89.06 124.445 89.4765C124.907 89.9162 125.474 90.136 126.145 90.136C126.84 90.136 127.395 89.9162 127.812 89.4765C128.251 89.06 128.587 88.5162 128.818 87.8451C129.05 87.1971 129.2 86.4798 129.269 85.693C129.362 84.9294 129.408 84.212 129.408 83.5409C129.408 82.3376 129.316 81.1111 129.131 79.8615C128.969 78.6119 128.726 77.3971 128.402 76.2169C128.286 75.8235 128.159 75.3954 128.02 74.9326C127.904 74.4698 127.754 74.0301 127.569 73.6135C127.407 73.197 127.21 72.8383 126.978 72.5375C126.77 72.2367 126.516 72.0515 126.215 71.9821L125.833 71.9127C125.717 71.8664 125.532 71.797 125.278 71.7044C125.023 71.5887 124.896 71.3573 124.896 71.0102C124.896 70.7788 124.977 70.5937 125.139 70.4548C125.324 70.316 125.509 70.2466 125.694 70.2466C126.064 70.2466 126.388 70.4086 126.666 70.7325C126.944 71.0334 127.14 71.2879 127.256 71.4962C128.182 71.635 129.142 71.7044 130.137 71.7044C130.947 71.7044 131.838 71.6813 132.81 71.635C133.782 71.5656 134.765 71.4383 135.76 71.2532C136.779 71.0449 137.785 70.7672 138.78 70.4201C139.775 70.073 140.701 69.5986 141.557 68.997ZM126.492 71.4268C126.469 71.3805 126.411 71.311 126.319 71.2185C126.25 71.1259 126.169 71.0449 126.076 70.9755C125.983 70.9061 125.891 70.8598 125.798 70.8367C125.706 70.8135 125.636 70.8367 125.59 70.9061C125.544 70.9524 125.59 71.0681 125.729 71.2532C125.891 71.4152 126.145 71.473 126.492 71.4268ZM125.451 65.7688C125.335 66.1854 125.208 66.6482 125.069 67.1573C124.93 67.6432 124.803 68.0945 124.688 68.511C125.127 68.2333 125.636 67.8747 126.215 67.435C126.816 66.9953 127.43 66.4978 128.054 65.9424C128.702 65.387 129.327 64.7854 129.929 64.1374C130.531 63.4663 131.074 62.7721 131.56 62.0548C132.046 61.3143 132.44 60.5506 132.74 59.7638C133.041 58.977 133.192 58.1787 133.192 57.3688C133.192 56.8365 133.076 56.4663 132.845 56.258C132.636 56.0266 132.417 55.9109 132.185 55.9109C132.046 55.9109 131.942 55.9225 131.873 55.9456C131.109 56.2002 130.392 56.6861 129.721 57.4035C129.05 58.1208 128.436 58.9539 127.881 59.9027C127.349 60.8514 126.874 61.8465 126.458 62.8878C126.041 63.9292 125.706 64.8895 125.451 65.7688ZM148.446 69.1705C148.284 69.2862 148.018 69.4482 147.648 69.6565C147.277 69.8416 146.826 70.0267 146.294 70.2119C145.785 70.397 145.218 70.559 144.593 70.6978C143.968 70.8367 143.32 70.9061 142.649 70.9061C142.325 70.9061 142.001 70.8135 141.677 70.6284C141.376 70.4433 141.226 70.1656 141.226 69.7953C141.226 69.4714 141.342 69.2052 141.573 68.997C141.804 68.7887 142.059 68.6499 142.337 68.5804C142.614 68.511 142.869 68.5226 143.1 68.6152C143.332 68.6846 143.447 68.8466 143.447 69.1011C143.447 69.3557 143.343 69.5176 143.135 69.5871C142.927 69.6565 142.765 69.6912 142.649 69.6912C142.395 69.6912 142.209 69.6796 142.094 69.6565C142.001 69.9805 142.082 70.2003 142.337 70.316C142.614 70.4086 142.927 70.4548 143.274 70.4548C144.014 70.4548 144.847 70.3276 145.773 70.073C146.722 69.8185 147.52 69.4598 148.168 68.997C148.376 68.8581 148.492 68.8466 148.515 68.9623C148.538 69.0548 148.515 69.1242 148.446 69.1705ZM142.128 69.1705C142.082 69.24 142.105 69.2862 142.198 69.3094C142.314 69.3325 142.429 69.3441 142.545 69.3441C142.684 69.3209 142.811 69.2978 142.927 69.2747C143.043 69.2284 143.1 69.1821 143.1 69.1358C143.1 69.0664 143.054 69.0201 142.962 68.997C142.869 68.9507 142.765 68.9391 142.649 68.9623C142.533 68.9623 142.418 68.9854 142.302 69.0317C142.209 69.0548 142.152 69.1011 142.128 69.1705Z" fill="#373826"/>
</svg>
